HIERARCHY
ROOT hips
{
	OFFSET 0.000000 104.274902 0.000000
	CHANNELS 6 Xposition Yposition Zposition Xrotation Yrotation Zrotation
	JOINT spine
	{
		OFFSET 0.000000 10.181549 0.131524
		CHANNELS 6 Xposition Yposition Zposition Xrotation Yrotation Zrotation
		JOINT chest
		{
			OFFSET 0.000000 9.893990 -1.470706
			CHANNELS 3 Xrotation Yrotation Zrotation
			JOINT upperChest
			{
				OFFSET 0.000000 9.220787 -1.370637
				CHANNELS 3 Xrotation Yrotation Zrotation
				JOINT neck
				{
					OFFSET 0.000000 16.740372 -2.049022
					CHANNELS 6 Xposition Yposition Zposition Xrotation Yrotation Zrotation
					JOINT head
					{
						OFFSET 0.000000 9.617859 1.684976
						CHANNELS 6 Xposition Yposition Zposition Xrotation Yrotation Zrotation
						JOINT headEnd
						{
							OFFSET 0.000000 22.037384 7.501072
							CHANNELS 6 Xposition Yposition Zposition Xrotation Yrotation Zrotation
							End Site
							{
								OFFSET 0.000000 23.106567 -2.828246
							}
						}
					}
				}
				JOINT rightShoulder
				{
					OFFSET -4.570000 11.014877 -2.160840
					CHANNELS 6 Xposition Yposition Zposition Xrotation Yrotation Zrotation
					JOINT rightUpperArm
					{
						OFFSET -10.592867 -0.524796 -2.232105
						CHANNELS 3 Xrotation Yrotation Zrotation
						JOINT rightLowerArm
						{
							OFFSET -27.841497 0.000000 -0.000002
							CHANNELS 3 Xrotation Yrotation Zrotation
							JOINT rightHand
							{
								OFFSET -28.328812 0.000000 -0.000001
								CHANNELS 3 Xrotation Yrotation Zrotation
								JOINT rightThumbProximal
								{
									OFFSET -2.464798 -1.573990 2.681911
									CHANNELS 6 Xposition Yposition Zposition Xrotation Yrotation Zrotation
									JOINT rightThumbIntermediate
									{
										OFFSET -3.244781 -1.873383 1.873376
										CHANNELS 3 Xrotation Yrotation Zrotation
										JOINT rightThumbDistal
										{
											OFFSET -2.646263 -1.527817 1.527818
											CHANNELS 6 Xposition Yposition Zposition Xrotation Yrotation Zrotation
											JOINT rightHandThumb4
											{
												OFFSET -1.994591 -1.151581 1.151575
												CHANNELS 6 Xposition Yposition Zposition Xrotation Yrotation Zrotation
												End Site
												{
													OFFSET -1.860176 -1.142715 1.365483
												}
											}
										}
									}
								}
								JOINT rightIndexProximal
								{
									OFFSET -9.108299 -0.517883 2.259803
									CHANNELS 6 Xposition Yposition Zposition Xrotation Yrotation Zrotation
									JOINT rightIndexIntermediate
									{
										OFFSET -3.699997 0.000000 0.000000
										CHANNELS 3 Xrotation Yrotation Zrotation
										JOINT rightIndexDistal
										{
											OFFSET -2.850006 0.000000 0.000000
											CHANNELS 3 Xrotation Yrotation Zrotation
											JOINT rightHandIndex4
											{
												OFFSET -2.772194 0.000000 0.000000
												CHANNELS 3 Xrotation Yrotation Zrotation
												End Site
												{
													OFFSET -2.772202 0.000000 -0.000484
												}
											}
										}
									}
								}
								JOINT rightMiddleProximal
								{
									OFFSET -9.532501 0.000000 -0.000000
									CHANNELS 6 Xposition Yposition Zposition Xrotation Yrotation Zrotation
									JOINT rightMiddleIntermediate
									{
										OFFSET -3.699997 0.000000 0.000000
										CHANNELS 3 Xrotation Yrotation Zrotation
										JOINT rightMiddleDistal
										{
											OFFSET -2.949997 0.000000 0.000000
											CHANNELS 3 Xrotation Yrotation Zrotation
											JOINT rightHandMiddle4
											{
												OFFSET -2.946594 0.000000 0.000000
												CHANNELS 3 Xrotation Yrotation Zrotation
												End Site
												{
													OFFSET -2.946602 0.000000 -0.000982
												}
											}
										}
									}
								}
								JOINT rightRingProximal
								{
									OFFSET -9.103600 -0.043106 -1.865100
									CHANNELS 6 Xposition Yposition Zposition Xrotation Yrotation Zrotation
									JOINT rightRingIntermediate
									{
										OFFSET -3.379303 0.000000 0.000000
										CHANNELS 3 Xrotation Yrotation Zrotation
										JOINT rightRingDistal
										{
											OFFSET -2.889694 0.000000 0.000000
											CHANNELS 3 Xrotation Yrotation Zrotation
											JOINT rightHandRing4
											{
												OFFSET -2.638802 0.000000 0.000000
												CHANNELS 3 Xrotation Yrotation Zrotation
												End Site
												{
													OFFSET -2.638802 0.000000 0.004218
												}
											}
										}
									}
								}
								JOINT rightLittleProximal
								{
									OFFSET -8.076698 -0.486725 -3.806299
									CHANNELS 6 Xposition Yposition Zposition Xrotation Yrotation Zrotation
									JOINT rightLittleIntermediate
									{
										OFFSET -3.600006 0.000000 0.000000
										CHANNELS 3 Xrotation Yrotation Zrotation
										JOINT rightLittleDistal
										{
											OFFSET -2.099998 0.000000 0.000000
											CHANNELS 3 Xrotation Yrotation Zrotation
											JOINT rightHandPinky4
											{
												OFFSET -2.115791 0.000000 0.000000
												CHANNELS 3 Xrotation Yrotation Zrotation
												End Site
												{
													OFFSET -2.115799 0.000000 0.000174
												}
											}
										}
									}
								}
							}
						}
					}
				}
				JOINT leftShoulder
				{
					OFFSET 4.570400 11.014679 -2.160816
					CHANNELS 6 Xposition Yposition Zposition Xrotation Yrotation Zrotation
					JOINT leftUpperArm
					{
						OFFSET 10.592373 -0.524597 -2.232116
						CHANNELS 3 Xrotation Yrotation Zrotation
						JOINT leftLowerArm
						{
							OFFSET 27.841488 0.000000 0.000001
							CHANNELS 3 Xrotation Yrotation Zrotation
							JOINT leftHand
							{
								OFFSET 28.328808 0.000000 -0.000000
								CHANNELS 3 Xrotation Yrotation Zrotation
								JOINT leftThumbProximal
								{
									OFFSET 2.466103 -1.576202 2.681698
									CHANNELS 6 Xposition Yposition Zposition Xrotation Yrotation Zrotation
									JOINT leftThumbIntermediate
									{
										OFFSET 3.243317 -1.872528 1.872530
										CHANNELS 3 Xrotation Yrotation Zrotation
										JOINT leftThumbDistal
										{
											OFFSET 2.647881 -1.528763 1.528754
											CHANNELS 6 Xposition Yposition Zposition Xrotation Yrotation Zrotation
											JOINT leftHandThumb4
											{
												OFFSET 1.998924 -1.154083 1.154080
												CHANNELS 6 Xposition Yposition Zposition Xrotation Yrotation Zrotation
												End Site
												{
													OFFSET 1.884041 -1.149155 1.337651
												}
											}
										}
									}
								}
								JOINT leftIndexProximal
								{
									OFFSET 9.109299 -0.518005 2.259900
									CHANNELS 6 Xposition Yposition Zposition Xrotation Yrotation Zrotation
									JOINT leftIndexIntermediate
									{
										OFFSET 3.699997 0.000000 0.000000
										CHANNELS 3 Xrotation Yrotation Zrotation
										JOINT leftIndexDistal
										{
											OFFSET 2.850006 0.000000 0.000000
											CHANNELS 3 Xrotation Yrotation Zrotation
											JOINT leftHandIndex4
											{
												OFFSET 2.774895 0.000000 0.000000
												CHANNELS 3 Xrotation Yrotation Zrotation
												End Site
												{
													OFFSET 2.774902 0.000000 -0.000072
												}
											}
										}
									}
								}
								JOINT leftMiddleProximal
								{
									OFFSET 9.533401 0.000000 0.000000
									CHANNELS 6 Xposition Yposition Zposition Xrotation Yrotation Zrotation
									JOINT leftMiddleIntermediate
									{
										OFFSET 3.699997 0.000000 0.000000
										CHANNELS 3 Xrotation Yrotation Zrotation
										JOINT leftMiddleDistal
										{
											OFFSET 2.949997 0.000000 0.000000
											CHANNELS 3 Xrotation Yrotation Zrotation
											JOINT leftHandMiddle4
											{
												OFFSET 2.952896 0.000000 0.000000
												CHANNELS 3 Xrotation Yrotation Zrotation
												End Site
												{
													OFFSET 2.952904 0.000000 0.000165
												}
											}
										}
									}
								}
								JOINT leftRingProximal
								{
									OFFSET 9.104500 -0.042999 -1.865101
									CHANNELS 6 Xposition Yposition Zposition Xrotation Yrotation Zrotation
									JOINT leftRingIntermediate
									{
										OFFSET 3.149994 0.000000 0.000000
										CHANNELS 3 Xrotation Yrotation Zrotation
										JOINT leftRingDistal
										{
											OFFSET 2.950005 0.000000 0.000000
											CHANNELS 3 Xrotation Yrotation Zrotation
											JOINT leftHandRing4
											{
												OFFSET 2.644302 0.000000 0.000000
												CHANNELS 3 Xrotation Yrotation Zrotation
												End Site
												{
													OFFSET 2.644302 0.000000 0.000083
												}
											}
										}
									}
								}
								JOINT leftLittleProximal
								{
									OFFSET 8.077805 -0.486893 -3.806302
									CHANNELS 6 Xposition Yposition Zposition Xrotation Yrotation Zrotation
									JOINT leftLittleIntermediate
									{
										OFFSET 3.600006 0.000000 0.000000
										CHANNELS 3 Xrotation Yrotation Zrotation
										JOINT leftLittleDistal
										{
											OFFSET 2.099998 0.000000 0.000000
											CHANNELS 3 Xrotation Yrotation Zrotation
											JOINT leftHandPinky4
											{
												OFFSET 2.125496 0.000000 0.000000
												CHANNELS 3 Xrotation Yrotation Zrotation
												End Site
												{
													OFFSET 2.125504 0.000000 -0.001254
												}
											}
										}
									}
								}
							}
						}
					}
				}
			}
		}
	}
	JOINT rightUpperLeg
	{
		OFFSET -8.207800 -6.751701 -1.599544
		CHANNELS 6 Xposition Yposition Zposition Xrotation Yrotation Zrotation
		JOINT rightLowerLeg
		{
			OFFSET 0.000004 -44.370152 0.345934
			CHANNELS 3 Xrotation Yrotation Zrotation
			JOINT rightFoot
			{
				OFFSET 0.000004 -44.423664 -3.043535
				CHANNELS 3 Xrotation Yrotation Zrotation
				JOINT rightToes
				{
					OFFSET 0.000001 -8.728691 10.710592
					CHANNELS 3 Xrotation Yrotation Zrotation
					JOINT rightToesEnd
					{
						OFFSET 0.000000 -0.000665 9.278101
						CHANNELS 3 Xrotation Yrotation Zrotation
						End Site
						{
							OFFSET 0.000000 -0.000665 9.278103
						}
					}
				}
			}
		}
	}
	JOINT leftUpperLeg
	{
		OFFSET 8.207800 -6.751701 -1.599544
		CHANNELS 6 Xposition Yposition Zposition Xrotation Yrotation Zrotation
		JOINT leftLowerLeg
		{
			OFFSET 0.000004 -44.370037 0.346940
			CHANNELS 3 Xrotation Yrotation Zrotation
			JOINT leftFoot
			{
				OFFSET 0.000004 -44.423611 -3.044388
				CHANNELS 3 Xrotation Yrotation Zrotation
				JOINT leftToes
				{
					OFFSET 0.000001 -8.728690 10.710592
					CHANNELS 3 Xrotation Yrotation Zrotation
					JOINT leftToesEnd
					{
						OFFSET 0.000000 -0.000680 9.278101
						CHANNELS 3 Xrotation Yrotation Zrotation
						End Site
						{
							OFFSET 0.000000 -0.000680 9.278101
						}
					}
				}
			}
		}
	}
}
MOTION
Frames: 4
Frame Time: 0.033333
9.359084 102.693558 -2.930143 17.392795 -23.560859 6.263546 0.000002 10.181558 0.131522 0.006216 -0.325452 -0.577937 -0.132534 0.264308 0.913096 -0.134810 0.260563 0.913179 -0.000001 16.740383 -2.049026 -4.737607 0.598586 2.147476 -0.000001 9.617850 1.684978 -15.249005 6.932818 -4.381786 -0.000001 22.037384 7.501070 -0.000000 0.000001 -0.000000 -4.570001 11.014891 -2.160844 -1.890562 -8.638895 -10.198801 -13.965796 13.590219 -14.574329 0.000160 120.143205 -0.000100 -35.461441 13.618731 -14.127123 -2.464794 -1.574023 2.681916 -1.849621 -3.589948 -6.590911 4.637187 -8.634138 -0.225370 -2.646269 -1.527801 1.527820 -1.273753 0.137307 -2.094882 -1.994583 -1.151597 1.151572 0.000001 -0.000006 -0.000003 -9.108300 -0.517897 2.259806 -0.000006 0.000415 -0.003412 -0.000001 -0.000000 0.000000 0.000000 -0.000002 0.000000 0.000001 -0.000002 -0.000000 -9.532495 -0.000020 0.000002 -0.000006 0.000416 -0.003412 0.000000 -0.000002 -0.000000 0.000000 -0.000002 0.000000 -0.000002 -0.000001 -0.000000 -9.103594 -0.043121 -1.865100 -0.000006 0.000415 -0.003412 -0.000001 -0.000000 0.000000 -0.000002 0.000000 0.000000 -0.000002 -0.000002 -0.000000 -8.076695 -0.486740 -3.806295 -0.000005 0.000415 -0.003412 0.000000 0.000000 0.000000 0.000002 0.000000 0.000001 0.000000 -0.000003 -0.000000 4.570396 11.014701 -2.160818 0.008376 -0.713490 20.440820 -24.212051 1.440563 -37.563407 -0.000000 -136.815533 0.000000 2.574232 -0.303475 10.285199 2.466100 -1.576202 2.681698 -1.539947 3.690281 6.142359 3.939034 7.948722 0.746804 2.647877 -1.528751 1.528753 -0.579462 1.575001 2.538722 1.998921 -1.154086 1.154078 -0.000001 0.000000 -0.000002 9.109302 -0.518006 2.259898 -0.000000 -0.000000 -0.000001 -0.000000 -0.000000 -0.000001 -0.000000 -0.000000 -0.000001 0.000001 -0.000001 -0.000000 9.533405 -0.000004 -0.000004 -0.000003 -0.001934 0.015976 0.000004 0.001936 -0.015976 0.000000 -0.000004 0.000002 -0.000001 0.000001 0.000000 9.104503 -0.043000 -1.865105 -0.000000 -0.000000 -0.000001 -0.000000 0.000009 -0.000005 -0.000000 0.000001 -0.000001 0.000000 0.000000 0.000000 8.077822 -0.486889 -3.806304 -0.018086 4.054262 0.511077 -0.018098 -4.054260 -0.511073 -0.000000 0.000001 0.000002 -0.000000 0.000001 0.000003 -8.207797 -6.751708 -1.599546 -77.881942 0.660470 2.065503 114.330017 5.870374 -3.020715 11.471561 1.502268 11.134813 0.944842 -0.000005 0.000006 0.000002 -0.000000 -0.000000 8.207804 -6.751708 -1.599546 -19.746973 7.259758 0.681710 25.229383 11.031769 5.926835 2.987682 9.199646 -8.711390 -25.343852 -0.000006 -0.000003 0.000000 0.000000 0.000000 
9.919582 103.745041 -3.147108 19.147884 -22.974431 6.881444 0.000001 10.181557 0.131525 -0.192710 -0.293527 1.080986 -0.560808 -0.147514 1.381647 -0.559989 -0.157786 1.381018 -0.000000 16.740362 -2.049019 -5.004420 0.125392 2.366346 -0.000001 9.617876 1.684982 -14.489109 5.129026 -5.482568 0.000001 22.037384 7.501073 -0.000001 0.000001 0.000000 -4.570001 11.014893 -2.160846 -2.002851 -8.911762 -10.355433 -7.215635 12.797911 -15.134007 0.000169 120.137768 -0.000092 -19.092641 -3.198899 -13.178523 -2.464793 -1.573984 2.681910 -1.849613 -3.589930 -6.590884 4.637184 -8.634143 -0.225371 -2.646269 -1.527806 1.527819 -1.273750 0.137307 -2.094882 -1.994598 -1.151582 1.151575 0.000002 -0.000006 -0.000000 -9.108294 -0.517869 2.259800 0.000002 0.000430 -0.003412 -0.000000 0.000000 0.000000 0.000002 -0.000000 0.000001 0.000000 0.000000 0.000001 -9.532498 0.000009 -0.000003 0.000002 0.000429 -0.003412 0.000000 0.000000 0.000000 0.000001 -0.000000 0.000001 -0.000000 -0.000000 0.000001 -9.103598 -0.043092 -1.865104 0.000002 0.000429 -0.003412 0.000000 -0.000000 0.000000 0.000002 0.000000 0.000000 0.000000 -0.000000 0.000001 -8.076692 -0.486711 -3.806298 -0.000002 0.000430 -0.003412 0.000000 0.000000 0.000000 0.000003 0.000002 0.000002 -0.000000 0.000001 0.000000 4.570398 11.014688 -2.160815 0.007958 -1.116945 22.106025 -13.619103 -9.656423 -39.807203 0.000002 -135.136618 0.000009 5.416154 2.734649 15.488578 2.466109 -1.576170 2.681701 -1.539944 3.690278 6.142356 3.939036 7.948716 0.746808 2.647875 -1.528769 1.528753 -0.579462 1.574996 2.538723 1.998921 -1.154091 1.154069 -0.000001 0.000001 0.000001 9.109296 -0.517992 2.259902 0.000000 0.000001 -0.000002 0.000000 0.000001 -0.000002 0.000000 0.000001 -0.000002 0.000000 0.000000 -0.000001 9.533406 0.000014 0.000004 -0.000003 -0.001934 0.015975 0.000004 0.001938 -0.015978 -0.000001 -0.000002 0.000004 -0.000000 -0.000000 0.000002 9.104497 -0.042984 -1.865101 0.000000 0.000001 -0.000002 0.000000 0.000011 -0.000004 0.000002 0.000001 -0.000000 0.000000 0.000001 0.000001 8.077812 -0.486861 -3.806293 -0.018085 4.054261 0.511075 -0.018099 -4.054259 -0.511074 0.000000 -0.000000 -0.000001 0.000002 -0.000001 0.000001 -8.207799 -6.751691 -1.599528 -77.446736 0.297625 0.778303 104.414960 2.172966 -2.348505 10.035087 0.382307 10.949662 0.944848 0.000002 0.000004 0.000002 -0.000000 -0.000000 8.207802 -6.751696 -1.599543 -22.370154 6.385406 0.315606 24.713072 11.332666 5.333025 7.607278 11.015886 -4.081709 -28.793455 -0.000007 -0.000005 0.000000 0.000000 -0.000000 
9.714488 105.555313 -2.950682 18.510088 -23.041057 5.807464 0.000001 10.181568 0.131526 -0.091479 -0.132591 3.273055 -0.439433 -0.669304 2.353302 -0.431467 -0.684651 2.350912 0.000000 16.740398 -2.049021 -5.827775 0.190225 1.228131 0.000003 9.617858 1.684984 -11.056387 4.140094 -6.936521 0.000001 22.037354 7.501075 -0.000000 -0.000000 -0.000000 -4.570003 11.014893 -2.160841 -1.804722 -8.377440 -9.590108 4.126341 17.005740 -8.668302 0.000181 114.900625 -0.000126 -1.989971 -12.249952 -3.096708 -2.464795 -1.573985 2.681907 -1.849615 -3.589930 -6.590893 4.637189 -8.634137 -0.225363 -2.646272 -1.527797 1.527814 -1.273750 0.137307 -2.094887 -1.994606 -1.151572 1.151579 0.000003 -0.000002 0.000003 -9.108298 -0.517848 2.259801 0.000002 0.000423 -0.003404 0.000000 -0.000000 -0.000001 0.000002 -0.000000 -0.000001 0.000000 0.000000 -0.000001 -9.532502 0.000012 -0.000005 0.000002 0.000423 -0.003404 -0.000000 -0.000000 -0.000001 0.000002 -0.000000 -0.000001 0.000000 0.000000 -0.000002 -9.103594 -0.043087 -1.865104 0.000002 0.000423 -0.003404 -0.000000 -0.000000 -0.000001 0.000001 -0.000000 0.000001 -0.000000 -0.000000 -0.000000 -8.076695 -0.486723 -3.806301 0.000002 0.000424 -0.003404 0.000000 0.000000 -0.000001 0.000003 0.000002 0.000001 0.000000 0.000000 0.000002 4.570395 11.014701 -2.160818 0.266253 -1.504720 19.803734 -5.216684 -19.126166 -46.306596 -0.000001 -124.518747 0.000011 7.682279 3.061704 17.024270 2.466101 -1.576198 2.681704 -1.539948 3.690282 6.142358 3.939034 7.948722 0.746803 2.647881 -1.528738 1.528749 -0.579467 1.574999 2.538724 1.998917 -1.154111 1.154079 0.000001 -0.000001 -0.000000 9.109298 -0.518006 2.259901 0.000001 -0.000000 0.000000 0.000001 -0.000000 0.000000 0.000001 -0.000000 0.000000 0.000001 -0.000000 0.000001 9.533402 -0.000004 -0.000003 -0.000002 -0.001934 0.015977 0.000003 0.001937 -0.015979 -0.000002 -0.000001 0.000003 0.000001 -0.000001 0.000001 9.104491 -0.043015 -1.865098 0.000001 -0.000000 0.000000 0.000000 0.000009 -0.000003 -0.000000 -0.000000 -0.000001 0.000001 -0.000002 0.000001 8.077811 -0.486890 -3.806300 -0.018084 4.054263 0.511078 -0.018100 -4.054262 -0.511074 0.000000 -0.000000 0.000000 0.000002 -0.000001 0.000001 -8.207798 -6.751696 -1.599539 -69.327527 0.028980 0.293114 84.619460 0.008794 -1.630083 9.494813 0.262594 8.202762 0.944842 0.000009 -0.000011 -0.000004 -0.000001 0.000001 8.207800 -6.751694 -1.599542 -18.935620 6.213899 1.459300 19.255251 11.589868 5.036532 15.659901 10.127303 -0.100439 -31.722520 0.000003 -0.000006 0.000000 -0.000000 0.000001 
9.049323 106.690895 -2.225996 17.699751 -23.339084 5.506897 0.000001 10.181542 0.131519 -0.070142 -0.296552 4.217390 -0.447678 -1.216428 3.174860 -0.433862 -1.236133 3.169932 -0.000001 16.740377 -2.049025 -6.266558 0.740106 -0.761610 0.000001 9.617849 1.684979 -8.068089 3.906265 -7.586180 0.000000 22.037384 7.501072 0.000000 0.000001 -0.000000 -4.570001 11.014886 -2.160843 -1.519375 -7.509242 -8.766940 10.299173 25.279266 3.259253 0.000343 100.007732 -0.000296 14.483998 -10.972483 8.970723 -2.464788 -1.574001 2.681903 -1.849620 -3.589925 -6.590896 4.637187 -8.634139 -0.225366 -2.646262 -1.527790 1.527817 -1.273750 0.137309 -2.094882 -1.994601 -1.151580 1.151582 -0.000000 -0.000004 -0.000002 -9.108295 -0.517877 2.259796 -0.000001 0.000427 -0.003421 0.000000 0.000000 0.000004 0.000002 -0.000001 0.000004 0.000001 -0.000001 0.000003 -9.532491 -0.000002 -0.000007 -0.000002 0.000427 -0.003421 0.000000 -0.000000 0.000004 0.000002 -0.000001 0.000004 -0.000000 -0.000001 0.000002 -9.103591 -0.043100 -1.865108 -0.000001 0.000427 -0.003421 0.000000 -0.000001 0.000004 0.000002 -0.000001 0.000006 0.000001 -0.000000 0.000002 -8.076692 -0.486727 -3.806305 -0.000003 0.000424 -0.003412 0.000000 0.000001 0.000005 0.000004 0.000002 0.000004 0.000000 -0.000001 0.000004 4.570400 11.014681 -2.160817 0.259521 -0.724359 13.491528 -5.645290 -23.223198 -58.091879 0.000012 -107.604487 0.000012 11.161167 4.256987 12.671880 2.466097 -1.576218 2.681698 -1.539946 3.690285 6.142361 3.939034 7.948721 0.746806 2.647869 -1.528764 1.528748 -0.579461 1.575000 2.538723 1.998941 -1.154081 1.154071 -0.000000 0.000000 -0.000004 9.109294 -0.518007 2.259906 0.000000 0.000003 0.000002 0.000000 0.000003 0.000002 0.000000 0.000003 0.000002 0.000003 -0.000001 0.000002 9.533407 0.000010 0.000009 -0.000004 -0.001931 0.015978 0.000004 0.001940 -0.015977 0.000002 -0.000002 0.000003 -0.000000 0.000004 0.000003 9.104495 -0.043015 -1.865103 0.000000 0.000003 0.000002 -0.000001 0.000011 -0.000003 0.000001 -0.000002 0.000000 -0.000001 -0.000000 -0.000000 8.077807 -0.486904 -3.806301 -0.018083 4.054265 0.511077 -0.018098 -4.054268 -0.511076 0.000000 0.000001 0.000001 -0.000002 0.000003 0.000000 -8.207798 -6.751704 -1.599551 -59.619745 0.804351 0.246096 62.024367 -1.959703 -2.348760 10.061144 0.360780 9.728803 0.944861 0.000006 0.000004 -0.000000 0.000000 -0.000000 8.207801 -6.751717 -1.599547 -11.918839 6.807270 1.974398 11.128963 9.862131 4.348793 22.810330 9.080661 8.318460 -33.916582 0.580250 -7.186022 0.000000 0.000000 0.000000 
